<?xml version="1.0" encoding="UTF-8" standalone="no"?>
<!-- Created with Inkscape (http://www.inkscape.org/) -->

<svg
   width="32"
   height="32"
   viewBox="0 0 8.4666662 8.4666662"
   version="1.1"
   id="svg1"
   inkscape:version="1.4.2 (f4327f4, 2025-05-13)"
   sodipodi:docname="logo32.svg"
   xmlns:inkscape="http://www.inkscape.org/namespaces/inkscape"
   xmlns:sodipodi="http://sodipodi.sourceforge.net/DTD/sodipodi-0.dtd"
   xmlns="http://www.w3.org/2000/svg"
   xmlns:svg="http://www.w3.org/2000/svg">
  <sodipodi:namedview
     id="namedview1"
     pagecolor="#ffffff"
     bordercolor="#000000"
     borderopacity="0.25"
     inkscape:showpageshadow="2"
     inkscape:pageopacity="0.0"
     inkscape:pagecheckerboard="0"
     inkscape:deskcolor="#d1d1d1"
     inkscape:document-units="mm"
     inkscape:zoom="11.01807"
     inkscape:cx="39.88902"
     inkscape:cy="33.71734"
     inkscape:window-width="1920"
     inkscape:window-height="991"
     inkscape:window-x="-9"
     inkscape:window-y="-9"
     inkscape:window-maximized="1"
     inkscape:current-layer="layer2" />
  <defs
     id="defs1">
    <symbol
       id="FlowSymbols.svg:Connector">
      <title
         id="title20">Connector</title>
      <desc
         id="desc20">Exit to or entry from another part of chart.</desc>
      <circle
         cx="75"
         cy="75"
         r="20"
         style="stroke-width:2"
         id="circle20" />
    </symbol>
  </defs>
  <g
     inkscape:label="Layer 1"
     inkscape:groupmode="layer"
     id="layer1" />
  <g
     inkscape:groupmode="layer"
     id="layer2"
     inkscape:label="Layer 2"
     transform="matrix(0.05317482,0,0,0.04913139,-0.37342072,-2.3499786)"
     style="stroke-width:19.5644">
    <path
       style="fill:#111d29;fill-opacity:1;fill-rule:evenodd;stroke:#000000;stroke-width:0.258822;stroke-linecap:round;paint-order:stroke fill markers"
       id="path1-5"
       d="m 38.464767,91.767973 c 0.07816,1.43163 0.148029,2.87102 0.04497,4.30219 -0.202798,0.76897 -0.27573,1.5839 -0.511146,2.34443 -0.02953,0.0954 -0.331907,0.75311 -0.369533,0.83593 -0.375327,1.057377 -0.512778,2.171687 -0.815737,3.250617 -0.323972,1.08516 -0.481076,2.21011 -0.578101,3.33559 -0.01109,0.97406 -0.161383,1.93566 -0.275469,2.90151 -0.149812,1.10683 -0.158861,2.21306 -0.01601,3.3191 0.333108,1.37746 0.360622,2.7767 0.348758,4.18439 0.0073,1.33485 -0.02289,2.66647 -0.278416,3.97928 -0.3126,1.35757 -0.442179,2.74441 -0.483864,4.13418 -0.0044,1.502 -0.0436,2.93955 -0.360453,4.41067 -0.307665,1.48947 -0.363921,3.01931 -0.428744,4.53514 -0.171746,1.34683 -0.318696,2.68409 -0.271936,4.0421 0.189584,1.39454 0.06356,2.75901 -0.128961,4.14382 -0.244295,1.49472 -0.330477,3.00062 -0.380304,4.51136 -0.05166,1.47621 -0.03077,2.95288 -0.02566,4.42955 -0.0021,1.78831 0.0357,3.57633 0.04315,5.36453 0.01656,1.78497 -0.01328,3.57001 -0.05345,5.35448 0.0097,1.37906 -0.04231,2.76004 0.04898,4.13676 0.123875,1.14043 0.15862,2.2902 0.301651,3.4282 0.173032,1.01402 0.313531,2.03217 0.473292,3.04832 0.157231,0.99275 0.22896,1.99516 0.264134,2.99872 0.01196,0.54215 0.0073,0.27291 0.01405,0.80772 0,0 8.864767,-0.0157 8.864767,-0.0157 v 0 c -0.01252,-0.54914 -0.0044,-0.27223 -0.02437,-0.83071 -0.05402,-1.0357 -0.158054,-2.06729 -0.323921,-3.09149 -0.146513,-1.01766 -0.22379,-2.04371 -0.427125,-3.053 -0.209166,-1.1008 -0.205512,-2.24077 -0.380307,-3.34888 -0.08622,-1.35806 -0.01863,-2.71989 -0.04291,-4.07994 -0.04029,-1.78458 -0.07035,-3.56971 -0.05491,-5.35479 0.0061,-1.78817 0.0415,-3.5762 0.03568,-5.36449 0.0041,-1.46717 0.0172,-2.93445 0.03709,-4.40142 0.04527,-1.47771 0.151418,-2.9548 0.352004,-4.4201 0.194988,-1.43594 0.426077,-2.85231 0.200943,-4.30213 -0.074,-1.33287 0.10373,-2.6422 0.221533,-3.96864 0.05247,-1.47633 0.135925,-2.95354 0.458211,-4.40052 0.263885,-1.50413 0.323006,-3.00975 0.327859,-4.53567 0.09617,-1.35104 0.217,-2.69847 0.522014,-4.02203 0.227143,-1.36852 0.284102,-2.74352 0.270071,-4.12995 0.0055,-1.44166 -0.01947,-2.88483 -0.356404,-4.29525 -0.115385,-1.03651 0.0044,-2.07554 0.08442,-3.11304 0.107987,-0.97732 0.284795,-1.94809 0.285139,-2.9344 0.07126,-1.06978 0.211018,-2.13357 0.527804,-3.16202 0.295153,-1.04631 0.448143,-2.1269 0.855739,-3.13753 0.441905,-1.114157 0.637416,-2.297747 0.776153,-3.485607 0.06014,-1.45004 0.03555,-2.90297 0.136893,-4.35126 z" />
    <path
       style="fill:#041220;fill-opacity:1;fill-rule:evenodd;stroke:#000000;stroke-width:0.258822;stroke-linecap:round;paint-order:stroke fill markers"
       id="path2-5"
       d="m 66.749424,94.061203 c 0.103777,1.26289 0.287277,2.51507 0.380923,3.77977 0.129302,2.060267 0.143566,4.126217 0.110107,6.189657 -0.02535,1.68897 0.0056,3.37804 -0.01469,5.06703 0.109273,1.66487 -0.436666,3.24618 -0.735216,4.86123 -0.269415,1.46609 -0.398965,2.957 -0.431742,4.44635 -0.055,1.76133 0.19014,3.51008 0.207071,5.26901 -0.05068,1.69803 -0.111506,3.39549 -0.15127,5.09393 -0.01159,1.84765 -0.02342,3.69527 -0.02724,5.54296 0.03469,1.98521 -0.05666,3.96915 0.158261,5.94573 0.311137,1.92285 0.458435,3.86391 0.540419,5.8082 0.103317,1.94894 -0.159311,3.88165 -0.447201,5.80316 -0.290693,1.63077 -0.436666,3.28119 -0.759251,4.90582 -0.333116,1.06018 -0.515557,2.16063 -0.715899,3.25184 -0.240416,1.3306 -0.296429,2.68012 -0.32797,4.02858 -0.06348,1.21449 -0.06742,2.41543 0.06487,3.62351 0.160372,1.20263 0.22511,2.41419 0.251341,3.62623 0.106664,1.04379 0.260636,2.08086 0.333785,3.1282 -0.0058,0.77762 0.104855,1.54133 0.22614,2.30687 0,0 8.857247,-0.14462 8.857247,-0.14462 v 0 c -0.12631,-0.73843 -0.260697,-1.47173 -0.255932,-2.2247 -0.0745,-1.0369 -0.20379,-2.06579 -0.351771,-3.09478 -0.0544,-1.2334 -0.117473,-2.46694 -0.256278,-3.6943 -0.130323,-1.16342 -0.12958,-2.33143 -0.106106,-3.50128 0.04432,-1.29976 0.107357,-2.60423 0.358055,-3.88366 0.228018,-1.09439 0.447138,-2.18929 0.724882,-3.27237 0.237736,-1.63611 0.29786,-3.29151 0.572497,-4.9238 0.312026,-1.97651 0.684141,-3.96781 0.529662,-5.97801 -0.112581,-1.962 -0.294878,-3.91879 -0.550736,-5.86757 -0.250896,-1.93887 -0.167539,-3.89068 -0.152088,-5.84175 0.0016,-1.84199 -0.0059,-3.6838 0.04882,-5.52534 0.03417,-1.70875 0.118375,-3.41601 0.133003,-5.12515 -0.03215,-1.74458 -0.263771,-3.48435 -0.130677,-5.23123 0.05227,-1.44078 0.09676,-2.88531 0.369453,-4.30605 0.333529,-1.66196 0.855229,-3.31247 0.75039,-5.02652 -0.01839,-1.69056 0.01688,-3.38129 -0.01926,-5.0717 -0.05354,-2.0769 -0.06049,-4.15442 -0.100087,-6.231617 -0.04054,-1.2468 -0.162462,-2.49119 -0.175945,-3.73363 z" />
    <path
       style="fill:#00172e;fill-opacity:1;fill-rule:evenodd;stroke:#000000;stroke-width:0.258822;stroke-linecap:round;paint-order:stroke fill markers"
       id="path3-1"
       d="m 98.180432,93.103785 c -0.358542,1.33465 0.539864,8.468835 0.155165,9.797285 -0.329388,1.57519 -0.914321,3.07583 -1.341316,4.62342 -0.191751,0.89942 -0.36926,1.80319 -0.714071,2.65903 -0.307967,1.18265 -0.5872,2.37423 -0.862515,3.56576 -0.265205,1.15775 -0.257632,2.34635 -0.227449,3.52596 -0.0065,1.79577 0.191384,3.58189 0.280707,5.37375 0.130551,1.83459 0.118327,3.66711 0.0021,5.50072 -0.126974,1.95735 -0.198861,3.91757 -0.232087,5.87859 -0.02561,2.32703 -0.351356,4.64027 -0.554207,6.95722 -0.09407,2.28994 -0.249494,4.57461 -0.394965,6.86228 -0.09238,2.30343 -0.261683,4.60208 -0.430784,6.9009 -0.249965,1.70482 -0.409906,3.41807 -0.563295,5.13336 -0.107262,1.76881 -0.619935,3.46886 -0.880438,5.21498 -0.181642,1.54978 -0.435822,3.08965 -0.614797,4.6399 -0.129235,1.07602 -0.123801,2.16108 -0.121226,3.24295 0.0034,1.07361 -0.0033,2.14713 -0.01328,3.2207 -0.0013,0.14944 -0.0026,0.29888 -0.0038,0.44832 l 8.849676,-0.001 v 0 c -0.002,-0.1495 -0.003,-0.299 -0.005,-0.4485 -0.0132,-1.07148 -0.026,-2.14289 -0.0171,-3.21447 0.0143,-1.05515 0.0319,-2.11048 0.10175,-3.16377 0.11663,-1.53739 0.33453,-3.06118 0.53398,-4.5894 0.28517,-1.75495 0.72858,-3.48376 0.88139,-5.25895 0.20425,-1.71826 0.30874,-3.4487 0.47752,-5.17088 0.11406,-2.30103 0.34399,-4.59432 0.43517,-6.89674 0.158,-2.28229 0.24391,-4.56666 0.36936,-6.85069 0.17013,-2.34095 0.53884,-4.66526 0.61774,-7.00956 0.041,-1.9479 0.0941,-3.89626 0.2625,-5.83822 0.1261,-1.86778 0.0739,-3.73499 0.003,-5.60489 -0.10433,-1.76971 -0.29164,-3.54043 -0.25791,-5.31295 0.0641,-1.11903 0.0958,-2.24639 0.31906,-3.34833 0.24107,-1.15431 0.46259,-2.32506 0.87245,-3.43255 0.33119,-0.89741 0.54129,-6.09418 0.67942,-7.04056 0.36727,-1.53991 0.31909,-2.09472 0.70495,-3.630108 0.43729,-1.294037 -0.76546,-5.258357 -0.27321,-6.530987 z"
       sodipodi:nodetypes="cccccccccccccccccccscccccccccccccccccc" />
    <path
       style="fill:#001e3d;fill-opacity:1;fill-rule:evenodd;stroke:#000000;stroke-width:0.258822;stroke-linecap:round;paint-order:stroke fill markers"
       id="path4-7"
       d="m 122.99607,93.613123 c 0.19096,2.28346 0.0584,6.981057 0.0343,9.270307 -0.0328,2.10442 -0.14785,5.35691 -0.0229,7.45812 0.0899,1.52246 -0.11817,3.33309 -0.0824,4.8578 0.1201,2.34046 0.0907,5.61144 0.49059,7.91935 0.43303,2.2299 -0.8504,3.05775 -0.77895,5.32493 0.0977,1.46942 0.024,2.92797 -0.15388,4.38641 -0.1561,1.2187 -0.19224,2.45203 -0.2002,3.67982 0.009,1.43026 -0.002,2.8604 -0.0183,4.2906 0.004,1.25011 -0.007,2.5002 -0.005,3.7503 0.0311,1.15674 0.28788,2.28592 0.49053,3.41982 0.18991,1.1432 0.22747,2.30233 0.26503,3.45815 0.0351,1.15637 0.0495,2.30889 -0.10383,3.45647 -0.0754,0.88185 1.27965,1.66783 0.90362,2.45237 -0.4566,0.9453 -0.52431,1.79894 -0.55997,2.83077 -0.0999,1.20222 0.0448,2.48979 -0.0315,3.6941 -0.0514,0.9834 -0.1429,1.44728 0.22175,2.38113 0.10004,0.13426 -0.17071,0.87743 -0.0601,1.00312 0.18271,0.20763 -0.14057,0.53924 0.0426,0.74642 0.29838,0.33741 -0.17659,0.62342 0.16932,0.9144 0.58152,0.57709 0.52838,1.26658 0.89364,1.98436 0.43723,0.8487 0.34379,1.8034 0.41351,2.73849 0.0204,1.01029 0.11995,2.03336 -0.0458,3.03421 -0.0595,0.51159 0.51046,1.31205 0.22754,1.7287 l 8.06213,0.0553 -1.87678,-0.0934 c 0,0 -0.0168,-0.63123 0.0677,-1.20822 0.18048,-1.0688 -0.0851,-2.08405 -0.10319,-3.16507 -0.0576,-1.05133 0.49085,-2.18944 0.10173,-3.1755 -0.13734,-0.2622 0.46929,-0.51165 0.34198,-0.77887 -0.26191,-0.54973 -0.15027,0.0129 -0.5283,-0.48027 -1.11512,-1.11596 0.88023,-0.59258 -0.26123,-1.52304 -0.45278,-0.36908 0.42307,-1.73335 -0.19211,-1.92109 -0.54549,-0.55838 0.19191,-1.84569 0.14375,-2.56709 0.0819,-1.20471 -0.67087,-1.9262 -0.51727,-3.12412 0.0777,-0.92365 -0.85381,-1.30255 -0.41757,-2.13971 0.40762,-0.87105 0.13437,-1.97055 0.19345,-2.94203 0.12799,-1.19307 -0.10561,-2.52033 -0.12791,-3.71904 -0.0195,-1.19798 -0.19541,-2.53257 -0.38019,-3.71775 -0.16907,-1.09173 -0.27911,-1.90232 -0.36123,-3.00672 0.002,-1.25009 -0.10736,-3.22056 -0.10506,-4.47067 -0.0174,-1.42435 0.73654,-2.2727 0.78354,-3.69668 0.04,-1.20394 0.36176,-2.69558 0.49837,-3.89376 0.13184,-1.50871 -0.0939,-3.39705 -0.22646,-4.90997 -0.17965,-2.29886 0.74544,-4.11682 0.32784,-6.38647 -0.13832,-0.72312 -0.36399,-1.83281 -0.44857,-2.56141 -0.16466,-1.41836 -0.13716,-2.84784 -0.19929,-4.27124 -0.0434,-1.53814 -0.12295,-3.07354 -0.29419,-4.6035 -0.14783,-2.08081 -0.13648,-4.16361 -0.14561,-6.24897 -0.0241,-2.28925 0.41967,-8.235547 0.61062,-10.519007 z"
       sodipodi:nodetypes="cccccccccccccccccssccccccscccscscccccccccccccsccccc" />
    <path
       style="fill:#2a3139;fill-opacity:1;fill-rule:evenodd;stroke:#000000;stroke-width:0.258822;stroke-linecap:round;paint-order:stroke fill markers"
       id="path6-1"
       d="m 31.263521,168.51323 c 2.958327,-1.76083 5.997806,-3.35382 8.952208,-5.12456 1.260871,-0.86874 2.704849,-1.33782 4.009534,-2.1056 0.119906,-0.0706 1.514703,-0.98771 1.591589,-1.03814 2.095738,-1.4413 4.357282,-2.54089 6.601998,-3.66638 0.427424,-0.21481 0.848977,-0.44423 1.282275,-0.64444 4.464146,-2.06287 -1.876394,0.9896 2.667277,-1.17734 1.295276,-0.61773 2.535817,-1.29794 3.763586,-2.0611 2.277941,-1.46734 4.488068,-3.05825 6.674224,-4.68352 3.123429,-2.16338 6.210542,-4.38909 9.297797,-6.6137 3.391679,-2.66598 6.979594,-5.00615 10.530117,-7.40444 2.910294,-2.01424 5.924511,-3.83812 8.838927,-5.8443 0.436533,-0.3046 0.878662,-0.59982 1.309593,-0.91384 1.897366,-1.38256 0.535374,-0.47786 2.383386,-1.78432 1.077018,-0.76142 2.154148,-1.50142 3.207378,-2.30337 1.57279,-1.32726 3.36079,-2.28887 5.01355,-3.47445 1.71657,-1.31335 3.4569,-2.58964 5.21871,-3.82918 2.38047,-1.68542 4.57678,-3.64247 6.68884,-5.70539 1.83742,-1.87665 3.85451,-3.52325 5.92269,-5.07974 1.55586,-1.21049 3.12459,-2.39828 4.7403,-3.51064 1.09049,-0.72738 6.75096,-8.294667 7.6743,-9.251041 l -4.98899,-1.426336 -3.83646,3.21135 c 0,0 -5.48942,5.932547 -6.54236,6.624887 -1.57448,1.15221 -2.62602,1.84877 -4.14784,3.08398 -2.02536,1.60802 -4.34505,3.19537 -6.1546,5.0923 -2.12082,2.07723 -5.71699,4.51758 -8.15755,6.1281 -1.75358,1.26982 -4.085478,3.72701 -5.846576,4.9842 -1.678271,1.10762 -1.936843,0.11455 -3.501621,1.41262 -2.232745,1.68971 -5.38931,3.06172 -7.638079,4.72527 -2.917849,1.9383 -5.069375,3.69188 -7.959527,5.67982 -3.534538,2.40815 -5.858239,3.40346 -9.273872,6.01192 -3.1611,2.24969 -7.615404,4.61227 -10.838177,6.7546 -2.177177,1.61538 -5.246164,2.42605 -7.526128,3.86287 -2.47211,1.49403 -3.522511,3.38109 -6.100999,4.62786 -2.294144,1.13928 -5.54898,0.44034 -7.717069,1.85112 -1.778359,1.08847 -1.842051,3.27278 -3.596339,4.4105 -3.01679,1.85945 -7.130817,6.78158 -10.331635,8.23252 z"
       sodipodi:nodetypes="ccsccsscccccssccccccccscccccccccccccccc" />
  </g>
</svg>
